PathFileType	4	(X/Y/Z)	./resultDataOpenSim/trcMotMarkerGrf/sub09/qtm-12-02.trc
DataRate	CameraRate	NumFrames	NumMarkers	Units	OrigDataRate	OrigDataStartFrame	OrigNumFrames
250.000000	250.000000	6	24	m	250.000000	242	482
Frame#	Time	L.Toe.Tip			R.Toe.Tip			L.Ankle.Lat			R.Ankle.Lat			L.Ankle.Med			R.Ankle.Med			L.Heel			R.Heel			L.Knee.Lat			R.Knee.Lat			L.Knee.Med			R.Knee.Med			L.Thigh.Upper			R.Thigh.Upper			L.ASIS			R.ASIS			V.Sacral			L.Acromium			R.Acromium			C7			L.Elbow			R.Elbow			L.Wrist.Lat			R.Wrist.Lat
		X1	Y1	Z1	X2	Y2	Z2	X3	Y3	Z3	X4	Y4	Z4	X5	Y5	Z5	X6	Y6	Z6	X7	Y7	Z7	X8	Y8	Z8	X9	Y9	Z9	X10	Y10	Z10	X11	Y11	Z11	X12	Y12	Z12	X13	Y13	Z13	X14	Y14	Z14	X15	Y15	Z15	X16	Y16	Z16	X17	Y17	Z17	X18	Y18	Z18	X19	Y19	Z19	X20	Y20	Z20	X21	Y21	Z21	X22	Y22	Z22	X23	Y23	Z23	X24	Y24	Z24

242	0.964	0.1519542	0.014543707	-0.0042861432	0.48435164	0.10671498	0.10641243	0.0050441199	0.057015121	-0.040458901	0.3374506	0.12584156	0.12412173	0.030007277	0.078198304	0.054049229	0.36377471	0.16272539	0.033567127	-0.067916236	0.030626969	0.0075771922	0.27449526	0.10108854	0.068665152	0.12590475	0.45456989	-0.11039931	0.43929153	0.56544068	0.16111604	0.12870773	0.46067239	0.015266163	0.44710744	0.55044262	0.035496231	0.17416216	0.8750653	-0.17697587	0.19952937	0.88680886	0.19438626	0.26716673	0.95992428	-0.12139704	0.27352958	0.97070496	0.11851967	0.1032965	1.0210555	-4.5622765e-05	0.28728287	1.4149622	-0.14743684	0.23954058	1.4265189	0.17916985	0.19792727	1.4724353	0.0087257891	0.14910962	1.0725819	-0.2307513	0.063182555	1.1119166	0.24215365	0.32755116	0.87076564	-0.22644247	0.13955087	0.8587831	0.30232676
243	0.968	0.15194908	0.0145914	-0.0043527521	0.50471491	0.10663263	0.10573599	0.0049485994	0.05758965	-0.039914357	0.35710249	0.1220974	0.12356196	0.03042284	0.078696243	0.054467432	0.38262941	0.15975751	0.033063005	-0.067790464	0.031402951	0.0084589702	0.29502984	0.095825934	0.068105257	0.12630875	0.45513532	-0.11031998	0.44935266	0.56530239	0.16065976	0.12916844	0.46120305	0.015499708	0.45416161	0.55009609	0.035468815	0.17950729	0.87477514	-0.17707944	0.20626363	0.88627818	0.1944375	0.27314377	0.9593394	-0.12172649	0.2801118	0.97012545	0.11824389	0.10960308	1.0205042	0.00021554849	0.2933052	1.4145122	-0.14765976	0.24603669	1.4259532	0.17910055	0.20412951	1.4719109	0.0087312425	0.15569619	1.0717186	-0.23094983	0.069809895	1.1115206	0.241986	0.33540531	0.8709768	-0.22654203	0.14502924	0.85814705	0.30230812
244	0.972	0.15193225	0.014608965	-0.0043940631	0.52500491	0.10666196	0.10511961	0.0048253472	0.058202904	-0.039269182	0.376921	0.1185186	0.12295835	0.030887116	0.079228749	0.054898416	0.40153174	0.15695291	0.032558181	-0.067653239	0.032223661	0.0094370339	0.31562742	0.090805696	0.067489912	0.12664629	0.45569492	-0.11025284	0.45881666	0.56495348	0.16046194	0.12988624	0.46173541	0.01553593	0.46110711	0.54955664	0.035463777	0.18483464	0.87444077	-0.17720831	0.21299104	0.88569008	0.19450015	0.27917039	0.95868672	-0.12202356	0.2867221	0.96947177	0.11798502	0.11594299	1.0198816	0.00048209517	0.29932906	1.4140069	-0.14786513	0.25254959	1.4253325	0.17903737	0.21028781	1.471332	0.0087540576	0.16229621	1.0708075	-0.23111686	0.076486955	1.1110657	0.24182699	0.34325183	0.87113943	-0.22663363	0.15061419	0.85746476	0.30230696
245	0.976	0.15190667	0.014604546	-0.0044308331	0.54524903	0.10680536	0.10455568	0.004680408	0.058850011	-0.038523463	0.39675793	0.11516636	0.12237171	0.031448881	0.079788611	0.055328585	0.42047183	0.15432705	0.032057129	-0.067506335	0.03308626	0.010528243	0.3362796	0.08602698	0.066804314	0.12693292	0.45625128	-0.11019948	0.4660916	0.56455461	0.16081795	0.13081095	0.46225718	0.015410184	0.46796827	0.54882784	0.035465722	0.18994883	0.87405905	-0.17727894	0.21970767	0.8850403	0.19457502	0.28523249	0.95796927	-0.12230468	0.29336604	0.96874141	0.11774472	0.1223244	1.019186	0.00077329093	0.30536229	1.4134396	-0.14804249	0.25908573	1.4246561	0.17897473	0.21647774	1.470681	0.008773245	0.16890947	1.0698482	-0.23125679	0.083193649	1.1105491	0.24168789	0.35108527	0.87124994	-0.22671805	0.15630381	0.85673713	0.30232157
246	0.98	0.15188315	0.014594559	-0.0044718581	0.56544642	0.10707522	0.10404611	0.0045302919	0.059528939	-0.03772211	0.41652454	0.11208536	0.12183772	0.032145975	0.080379508	0.055737004	0.439435	0.15189592	0.031563049	-0.067344182	0.033983963	0.011753745	0.35697086	0.081503256	0.066059274	0.12725231	0.45680323	-0.11017601	0.47161529	0.56402847	0.16141994	0.13186663	0.46275256	0.015217532	0.47477433	0.54791646	0.035452767	0.19481965	0.87361953	-0.17726933	0.2264111	0.88432341	0.19466501	0.29131558	0.95718582	-0.12257708	0.30004822	0.96793253	0.11752498	0.12874766	1.0184225	0.0011052208	0.31140512	1.4128132	-0.14820145	0.26563766	1.4239255	0.17890885	0.22272668	1.469952	0.0087821506	0.1755314	1.0688432	-0.23138396	0.089879267	1.1099729	0.2416116	0.35890055	0.87130394	-0.22679473	0.16209247	0.85596296	0.30235049
247	0.984	0.15186623	0.014587176	-0.0045166742	0.58554563	0.10750826	0.10361045	0.0043883616	0.06024395	-0.036905083	0.4362058	0.109272	0.12132802	0.032972445	0.081003741	0.056115872	0.45839639	0.14967453	0.031076193	-0.067162015	0.034915162	0.013098134	0.37769767	0.077256478	0.065263136	0.12768929	0.45734288	-0.11019662	0.47675986	0.56328782	0.16178398	0.13301888	0.4632156	0.015028688	0.48156471	0.54683199	0.035400194	0.19958676	0.87311499	-0.17719334	0.23310447	0.8835383	0.19477474	0.29740308	0.9563325	-0.12283864	0.30677043	0.96704274	0.11732577	0.13520623	1.0175949	0.0014656907	0.31745312	1.4121353	-0.14835276	0.27219409	1.423146	0.17884066	0.22901521	1.4691535	0.0087899185	0.18215951	1.0677964	-0.23150127	0.09646421	1.1093532	0.24167661	0.36669642	0.87130104	-0.22686219	0.16796396	0.85514047	0.30238943
